PathFileType	4	(X/Y/Z)	s08c0101.trc
DataRate	CameraRate	NumFrames	NumMarkers	Units	OrigDataRate	OrigDataStartFrame	OrigNumFrames
200	200	7	50	mm	200	750	2000
Frame#	Time	racr			lacr			c7			jug			rlel			rdr			llel			ldr			s2			lic			ric			lasi			rasi			rpsi			lpsi			rgt			lgt			rth1			rth2			rth3			rth4			rlfc			rmfc			rsh1			rsh2			rsh3			rsh4			rlmal			rmmal			rcal			rtoe			rmt5			lth1			lth2			lth4			lth3			llfc			lmfc			llmal			lmmal			lcal			lmt5			lsh1			lsh2			lsh3			lsh4			ltoe			SBIKE			LBIKE			RBIKE			
		X1	Y1	Z1	X2	Y2	Z2	X3	Y3	Z3	X4	Y4	Z4	X5	Y5	Z5	X6	Y6	Z6	X7	Y7	Z7	X8	Y8	Z8	X9	Y9	Z9	X10	Y10	Z10	X11	Y11	Z11	X12	Y12	Z12	X13	Y13	Z13	X14	Y14	Z14	X15	Y15	Z15	X16	Y16	Z16	X17	Y17	Z17	X18	Y18	Z18	X19	Y19	Z19	X20	Y20	Z20	X21	Y21	Z21	X22	Y22	Z22	X23	Y23	Z23	X24	Y24	Z24	X25	Y25	Z25	X26	Y26	Z26	X27	Y27	Z27	X28	Y28	Z28	X29	Y29	Z29	X30	Y30	Z30	X31	Y31	Z31	X32	Y32	Z32	X33	Y33	Z33	X34	Y34	Z34	X35	Y35	Z35	X36	Y36	Z36	X37	Y37	Z37	X38	Y38	Z38	X39	Y39	Z39	X40	Y40	Z40	X41	Y41	Z41	X42	Y42	Z42	X43	Y43	Z43	X44	Y44	Z44	X45	Y45	Z45	X46	Y46	Z46	X47	Y47	Z47	X48	Y48	Z48	X49	Y49	Z49	X50	Y50	Z50	
750	3.7500	586.879259	1335.699517	-91.429786	581.642629	1349.416654	-407.948139	556.835120	1409.708438	-250.942732	517.807862	1254.621946	-253.249843	596.304862	1094.081696	32.374144	796.841744	891.851510	-54.736912	584.741425	1085.190458	-523.897880	792.571061	906.240049	-439.364997	-5.472440	1208.486713	-224.439555	145.408705	1207.392644	-387.205432	162.991833	1208.182121	-69.647780	175.737213	1168.439061	-347.386802	181.066098	1156.218299	-106.334161	29.597232	1249.599316	-174.594735	25.708177	1251.876708	-267.128585	89.809245	1092.927404	-37.777501	96.642360	1091.226409	-414.309078	218.377836	981.014958	-35.913121	297.075318	940.176994	-42.328778	342.890913	866.690820	-51.125875	320.073900	966.286676	-54.266502	413.077573	777.864834	-69.225235	393.544491	776.345781	-186.990755	304.964843	703.302260	-39.561272	261.626508	626.490604	-61.484089	188.816684	581.751170	-66.222615	285.967811	610.180546	-88.849580	99.814457	507.782305	-72.174260	127.621878	509.891937	-159.178352	23.973433	532.266742	-119.623519	237.712462	331.269966	-112.977718	151.716307	365.580364	-42.406444	183.076233	981.308713	-425.818523	254.258567	930.969789	-423.558113	281.871823	953.695064	-415.874811	291.137451	850.012310	-421.479869	361.698867	743.066697	-404.582730	364.951488	714.082356	-298.626324	313.329356	322.754313	-408.016535	350.035048	354.996558	-336.488895	248.438451	290.977825	-371.541218	461.728424	254.410534	-425.581053	344.704542	612.109175	-427.481781	357.531270	528.729126	-412.976299	328.384939	445.036832	-412.996533	379.148043	529.828605	-379.017826	537.946190	295.430914	-356.253789	-137.645176	945.574406	-229.885008	19.247492	79.942423	-428.618915	19.420469	80.255022	-31.155774	
751	3.7550	584.746656	1335.558379	-88.175482	582.605129	1350.240667	-406.162583	556.267400	1410.349540	-248.258673	517.002936	1255.337505	-251.417171	595.664220	1093.991907	34.533744	796.811864	892.095794	-54.415542	587.625064	1087.071958	-524.585881	793.112221	905.624767	-439.436716	-4.945168	1206.915017	-227.501645	147.295658	1205.619445	-389.665416	161.427371	1208.444160	-71.726704	177.500653	1166.232390	-349.634113	180.881166	1156.990816	-108.428488	29.386513	1248.728739	-177.689033	27.076986	1250.586780	-271.370534	90.420346	1093.565558	-39.695038	97.522486	1087.727123	-416.052682	221.172349	984.368731	-38.118494	300.454356	945.076593	-43.498396	347.840313	872.620143	-51.737195	323.007010	971.644359	-55.314864	419.075704	784.783763	-69.566091	399.745732	782.874271	-187.364395	310.449336	711.425292	-40.074715	266.107708	634.934813	-62.029673	192.826750	591.055071	-66.793535	290.275635	618.280354	-89.319821	103.125964	517.810879	-72.834550	130.959994	519.841754	-159.777860	26.910388	542.066190	-120.147580	241.965378	342.320154	-113.324811	155.989144	376.677912	-42.218853	182.245827	976.286106	-427.755427	252.139314	924.073314	-425.338503	280.295715	946.113444	-417.704554	286.873276	842.181085	-423.120303	353.730246	732.422115	-402.786965	356.248770	705.413890	-300.734351	310.336414	313.865010	-409.411336	346.608041	346.264035	-337.746235	245.411380	283.354057	-373.258229	458.659159	243.580930	-425.449644	338.850487	603.090698	-429.108559	352.552555	519.816199	-414.654002	324.323214	435.957089	-414.724793	373.853881	520.885893	-379.877898	534.963980	283.749444	-355.713407	-137.579273	945.544070	-230.257485	19.279632	79.899367	-428.659935	19.461917	80.278382	-31.195021	
752	3.7600	582.575603	1335.776883	-84.998440	583.725498	1351.468284	-404.213152	555.691528	1411.078226	-245.474924	516.559760	1256.050242	-249.426530	594.924156	1093.832953	36.645456	796.728745	892.350998	-54.094732	590.557104	1089.529268	-525.047373	793.797557	905.089028	-439.187714	-4.383853	1205.895988	-231.129367	149.333935	1203.965267	-392.045472	159.661870	1209.169186	-73.755110	179.054422	1164.429370	-351.699251	180.669469	1158.065940	-110.643121	29.632345	1247.605250	-181.047473	27.894060	1249.378529	-275.584616	91.032085	1094.813738	-41.541688	98.497720	1084.648878	-417.754043	223.451829	988.020756	-39.828260	303.278840	950.516375	-43.549002	352.248591	878.701507	-51.982710	325.810928	977.613653	-55.501557	424.881387	792.116047	-69.824344	405.312936	788.793569	-185.597853	315.652206	719.792589	-40.734063	270.992544	643.614651	-62.491830	197.534546	600.200870	-67.240408	294.689763	626.641842	-89.747752	107.071265	527.601273	-73.520484	134.955218	529.708212	-160.129917	30.601486	551.585846	-120.532823	246.855576	353.219479	-113.600410	160.751639	387.122766	-42.484803	181.404058	971.697038	-429.518801	249.794376	917.691229	-427.080522	278.524480	938.999959	-419.454925	282.336780	834.929444	-424.854339	346.769033	724.019643	-404.416094	347.626055	697.658391	-301.246888	306.646075	305.432819	-410.621186	342.802852	338.128074	-338.939935	241.868467	276.338753	-374.329969	454.587218	233.044236	-425.263177	332.525434	594.561580	-430.870407	347.064023	511.454024	-416.162026	319.702524	427.231741	-416.363965	368.064800	512.878516	-381.545371	531.376701	272.302107	-355.521695	-137.523288	945.555941	-230.706161	19.311137	79.901596	-428.688965	19.494874	80.317497	-31.236687	
753	3.7650	580.400184	1336.135832	-82.093590	584.961229	1352.721394	-401.840471	555.137949	1411.859454	-242.765340	516.235747	1256.795966	-247.525812	594.188752	1093.790859	38.428991	796.732337	892.581849	-53.840394	593.370277	1091.901321	-524.796678	794.695591	904.516568	-438.816684	-3.662543	1204.833552	-234.990888	151.409694	1202.575727	-394.107516	157.790750	1210.335808	-75.736420	180.942859	1161.495596	-352.476641	180.374058	1159.701256	-112.843146	28.735686	1246.637409	-184.577712	28.552970	1248.305704	-279.580586	91.631328	1096.705850	-43.240882	99.530893	1082.015136	-419.384042	225.331509	991.991927	-41.099972	305.868835	955.825639	-44.280314	356.107389	885.034513	-51.996228	327.779418	983.321218	-55.935319	430.723688	800.066882	-69.728101	410.404468	794.035565	-181.996097	321.093845	728.303350	-41.303692	276.022181	652.336314	-62.752967	201.959798	609.708268	-67.538118	299.710898	635.286073	-89.953302	111.610398	537.107262	-73.944968	139.552100	539.369978	-160.359987	34.771978	560.737371	-120.821394	252.438500	363.956197	-113.946815	166.236766	397.243126	-42.804034	180.394540	967.624040	-431.273654	247.337109	911.757706	-428.727895	276.583554	932.184596	-420.936527	277.560109	828.178500	-426.598981	339.469981	716.179804	-405.924436	340.301194	689.107063	-304.975491	302.334329	297.580735	-411.502285	338.773563	330.565692	-340.150080	237.807428	269.937280	-375.198961	449.953094	222.954027	-425.106872	325.454122	586.394411	-432.438476	340.935211	503.564157	-417.681358	314.432680	419.027602	-417.670857	361.937142	505.572195	-383.491387	527.175472	261.028688	-354.961386	-137.623625	945.512846	-230.746522	19.324534	79.887749	-428.718741	19.513625	80.321769	-31.255835	
754	3.7700	579.036958	1337.929544	-77.545872	586.231103	1353.973335	-399.302703	554.596627	1412.781231	-240.197062	517.233821	1257.318628	-244.233639	593.465615	1093.865840	39.907876	796.804805	892.787083	-53.776870	596.424086	1094.201604	-524.186274	795.838508	904.061797	-438.364508	-3.119639	1203.710326	-238.028147	153.143794	1201.570279	-395.445232	155.713617	1211.798216	-77.729841	182.873854	1159.255851	-353.699487	180.018827	1161.696794	-115.043956	27.997250	1247.855057	-189.270800	29.253959	1247.720548	-283.736228	92.082555	1099.095756	-45.020839	100.588780	1079.671944	-420.918510	226.808176	996.844275	-41.353403	308.287237	961.860117	-45.098622	360.268276	891.824697	-51.987075	329.718336	989.400461	-57.189540	436.056976	808.511535	-69.892981	416.576914	801.705633	-181.661068	326.611119	737.162344	-41.757310	281.283991	661.206042	-62.875027	206.931205	618.832510	-67.667166	305.280976	643.967279	-89.827888	116.634854	546.316830	-74.193908	145.406912	548.888862	-160.490324	39.480378	569.383797	-120.914150	258.604317	374.249885	-114.250740	172.299393	406.886783	-43.065355	178.942652	963.947698	-433.175928	244.522766	906.420363	-430.469609	274.284114	926.033653	-422.492343	272.574814	822.069413	-428.495219	331.989329	708.442126	-407.241369	332.506654	681.037580	-307.417671	297.360652	290.416461	-412.096886	334.040534	323.366164	-340.811923	233.353929	264.175712	-375.893778	444.806727	213.408567	-424.916225	317.912093	578.901803	-434.079524	334.213181	496.121689	-418.883791	308.572224	411.509144	-418.753779	355.277881	498.592841	-384.872234	522.406187	250.049321	-354.445932	-137.572836	945.489336	-230.827542	19.343778	79.903114	-428.748780	19.522808	80.353574	-31.268506	
755	3.7750	577.154864	1338.712053	-75.334981	587.580970	1355.200940	-396.543641	554.144611	1413.882906	-237.831692	517.142724	1258.355849	-242.652841	592.737764	1094.171801	40.950567	797.594871	893.514507	-53.005031	599.772273	1096.375815	-523.041146	797.107067	903.594238	-437.583468	-2.802093	1203.918005	-242.517403	155.571966	1200.997723	-397.351339	153.394663	1213.643075	-79.696234	185.109081	1156.363549	-355.849685	179.456610	1163.973162	-117.144355	27.474544	1247.911169	-193.356473	29.709569	1247.161778	-287.823353	92.213245	1102.215973	-46.512170	101.480120	1077.744742	-422.522285	228.283447	1001.449560	-42.470227	310.440629	968.257839	-45.515594	363.423871	898.872247	-51.993287	331.601498	996.003197	-58.411010	441.397274	817.231933	-69.813230	422.715028	809.110551	-179.413220	332.071293	746.087755	-42.050190	286.743138	670.203479	-62.768674	212.307952	627.893207	-67.591054	310.918508	652.456586	-89.988616	122.135430	555.008298	-74.147292	150.007983	557.768130	-160.284829	44.501220	577.527925	-120.825177	265.342426	384.154123	-114.616060	178.786352	416.190727	-43.249366	177.236037	960.803975	-434.796111	241.447012	901.631673	-432.243624	271.644126	920.539300	-424.017588	267.364040	816.612361	-430.278896	321.111702	702.563316	-410.773655	322.866183	674.998958	-307.868181	292.080565	283.776799	-412.440752	328.879698	316.751045	-341.261296	228.454806	259.206377	-375.887666	438.963438	204.164166	-424.778303	309.915511	571.985143	-435.273066	327.067349	489.496924	-420.240808	302.193336	404.570936	-419.771427	348.050400	491.972376	-385.910497	517.216906	239.306906	-354.397536	-137.564359	945.566652	-231.002044	19.352510	79.931542	-428.768566	19.518605	80.357208	-31.327995	
756	3.7800	575.377509	1339.711599	-73.204145	588.952363	1356.465795	-393.742702	553.668281	1415.078266	-235.486773	517.231387	1259.440932	-241.017604	592.342837	1094.513073	41.252366	797.925493	893.841603	-53.057309	603.378509	1098.535587	-521.514346	798.622334	903.033705	-436.970419	-2.096400	1204.943366	-247.731875	158.214888	1200.760190	-399.250655	151.021008	1215.734983	-81.691503	186.799897	1153.669664	-358.446032	178.746380	1166.440350	-119.055905	24.288905	1249.491418	-195.478106	30.346559	1247.088183	-291.597391	91.934011	1105.781785	-47.959419	102.029969	1076.174565	-424.049651	229.752734	1006.659785	-43.272275	312.597227	974.894396	-46.264334	366.878587	906.745885	-52.367593	333.078900	1003.053276	-59.398140	446.758883	826.306227	-69.525869	428.250601	817.799981	-178.598241	337.521495	755.043631	-42.262399	292.211456	679.214492	-62.692648	217.819136	636.882913	-67.369453	316.432292	661.230845	-89.733025	127.826076	563.157734	-74.104964	155.721273	566.404794	-160.038159	49.955051	585.295344	-120.769329	272.591036	394.006428	-115.063644	186.030317	425.086372	-43.467073	175.225692	958.138963	-436.341961	237.944709	897.545709	-434.027982	268.585208	915.661739	-425.612640	261.903111	811.811280	-432.185946	315.112572	695.703525	-410.267290	313.770148	669.633621	-309.448117	286.330986	277.684427	-412.569855	323.862418	310.582397	-341.760671	223.231995	254.986373	-375.725093	432.389253	195.188196	-424.657339	301.439411	565.986598	-436.683224	319.411778	483.641705	-421.466512	295.295115	398.467449	-420.702128	340.593015	486.541753	-387.467999	511.445229	228.901011	-354.375542	-137.572423	945.546406	-231.133001	19.364834	79.939155	-428.788628	19.532301	80.432994	-31.355140	
